<?xml version="1.0" encoding="UTF-8"?>
<!DOCTYPE svg PUBLIC "-//W3C//DTD SVG 1.1//EN" "http://www.w3.org/Graphics/SVG/1.1/DTD/svg11.dtd">
<svg xmlns="http://www.w3.org/2000/svg" version="1.1" width="124px" height="127px" style="shape-rendering:geometricPrecision; text-rendering:geometricPrecision; image-rendering:optimizeQuality; fill-rule:evenodd; clip-rule:evenodd" xmlns:xlink="http://www.w3.org/1999/xlink">
<g><path style="opacity:0.576" fill="#fcfcfc" d="M 53.5,-0.5 C 58.5,-0.5 63.5,-0.5 68.5,-0.5C 87.8687,6.20818 96.0353,19.8748 93,40.5C 91.6116,46.7029 88.445,51.7029 83.5,55.5C 81.7708,56.1175 80.2708,57.1175 79,58.5C 78.8333,57.8333 78.6667,57.1667 78.5,56.5C 87.2341,44.47 85.9007,33.3033 74.5,23C 59.0974,15.2901 47.5974,19.1234 40,34.5C 38.5615,39.7625 38.2282,45.0958 39,50.5C 41.9621,52.7866 44.1288,55.6199 45.5,59C 43.3264,58.0628 40.9931,57.2294 38.5,56.5C 23.0646,38.4545 24.0646,21.2879 41.5,5C 45.284,2.47128 49.284,0.637951 53.5,-0.5 Z"/></g>
<g><path style="opacity:0.997" fill="#d21853" d="M 83.5,55.5 C 92.0625,57.9368 100.396,61.2701 108.5,65.5C 114.871,62.0368 119.871,63.3702 123.5,69.5C 123.5,71.5 123.5,73.5 123.5,75.5C 120.833,77.5 120.833,79.5 123.5,81.5C 123.5,84.8333 123.5,88.1667 123.5,91.5C 120.052,94.5576 116.052,96.5576 111.5,97.5C 110.081,109.389 103.415,114.222 91.5,112C 87.5897,110.093 84.2564,107.427 81.5,104C 79.8659,103.506 78.1992,103.34 76.5,103.5C 78.7154,113.377 75.7154,121.044 67.5,126.5C 63.5,126.5 59.5,126.5 55.5,126.5C 47.1639,121.2 43.8306,113.533 45.5,103.5C 44.1266,103.343 42.7932,103.51 41.5,104C 32.4573,114.69 22.9573,115.19 13,105.5C 12.131,102.67 10.9643,100.003 9.5,97.5C 5.80718,95.9916 2.47385,93.9916 -0.5,91.5C -0.5,88.1667 -0.5,84.8333 -0.5,81.5C 2.16667,79.5 2.16667,77.5 -0.5,75.5C -0.5,73.5 -0.5,71.5 -0.5,69.5C 3.12862,63.3702 8.12862,62.0368 14.5,65.5C 21.8928,60.924 29.8928,57.924 38.5,56.5C 40.9931,57.2294 43.3264,58.0628 45.5,59C 44.1288,55.6199 41.9621,52.7866 39,50.5C 38.2282,45.0958 38.5615,39.7625 40,34.5C 47.5974,19.1234 59.0974,15.2901 74.5,23C 85.9007,33.3033 87.2341,44.47 78.5,56.5C 78.6667,57.1667 78.8333,57.8333 79,58.5C 80.2708,57.1175 81.7708,56.1175 83.5,55.5 Z"/></g>
<g><path style="opacity:1" fill="#f8f3f4" d="M 59.5,31.5 C 67.3125,32.1484 69.6458,35.9818 66.5,43C 58.2463,46.0813 54.7463,43.2479 56,34.5C 57.1451,33.3636 58.3117,32.3636 59.5,31.5 Z"/></g>
<g><path style="opacity:1" fill="#c18e9e" d="M 58.5,33.5 C 65.9974,32.8038 67.9974,35.6372 64.5,42C 56.749,43.0913 54.749,40.258 58.5,33.5 Z"/></g>
<g><path style="opacity:1" fill="#596661" d="M 48.5,54.5 C 49.5,54.5 50.5,54.5 51.5,54.5C 51.5,55.8333 51.5,57.1667 51.5,58.5C 50.1667,58.5 48.8333,58.5 47.5,58.5C 47.4326,57.0413 47.7659,55.7079 48.5,54.5 Z"/></g>
<g><path style="opacity:1" fill="#596661" d="M 71.5,54.5 C 72.8333,54.5 74.1667,54.5 75.5,54.5C 75.5,55.8333 75.5,57.1667 75.5,58.5C 74.1667,58.5 72.8333,58.5 71.5,58.5C 71.5,57.1667 71.5,55.8333 71.5,54.5 Z"/></g>
<g><path style="opacity:1" fill="#fefffe" d="M 54.5,61.5 C 58.9811,60.3516 63.6478,60.1849 68.5,61C 68.0426,61.414 67.7093,61.914 67.5,62.5C 62.8916,63.9991 58.5582,63.6658 54.5,61.5 Z"/></g>
<g><path style="opacity:1" fill="#4a5350" d="M 36.5,61.5 C 37.6972,68.6982 42.0306,73.0315 49.5,74.5C 51.5,73.5 53.5,72.5 55.5,71.5C 59.5,74.1667 63.5,74.1667 67.5,71.5C 74.3093,75.3432 80.1426,74.0099 85,67.5C 85.3333,65.5 85.6667,63.5 86,61.5C 98.406,65.754 98.2393,70.254 85.5,75C 68.9392,79.7799 52.4392,79.6132 36,74.5C 24.631,69.3267 24.7977,64.9934 36.5,61.5 Z"/></g>
</svg>
