<?xml version="1.0" encoding="UTF-8"?>
<svg xmlns="http://www.w3.org/2000/svg" xmlns:xlink="http://www.w3.org/1999/xlink" width="110px" height="110px" viewBox="0 0 110 110" version="1.1">
<g id="surface1">
<path style="fill-rule:nonzero;fill:rgb(29.411766%,35.686275%,67.058825%);fill-opacity:1;stroke-width:7.57;stroke-linecap:square;stroke-linejoin:miter;stroke:rgb(30.19608%,65.098041%,100%);stroke-opacity:1;stroke-miterlimit:4;" d="M 75.46875 70.130682 C 74.051136 72.78125 69.261364 74.769886 62.789773 76.099432 C 56.321023 77.428977 48.159091 66.011364 40 66.011364 C 31.840909 66.011364 23.678977 77.428977 17.210227 76.099432 C 10.738636 74.769886 5.948864 72.78125 4.53125 70.130682 C -1.150568 59.519886 28.650568 3.789773 40 3.789773 C 51.349432 3.789773 81.150568 59.519886 75.46875 70.130682 Z M 75.46875 70.130682 " transform="matrix(1.375,0,0,1.375,0,0)"/>
<path style="fill-rule:nonzero;fill:rgb(0%,49.803922%,100%);fill-opacity:1;stroke-width:1;stroke-linecap:butt;stroke-linejoin:miter;stroke:rgb(33.725491%,66.666669%,100%);stroke-opacity:1;stroke-miterlimit:4;" d="M 55.198864 33.980114 C 55.198864 27.627841 48.931818 22.480114 41.198864 22.480114 C 33.46875 22.480114 27.198864 27.627841 27.198864 33.980114 C 27.198864 40.332386 33.46875 45.480114 41.198864 45.480114 C 48.931818 45.480114 55.198864 40.332386 55.198864 33.980114 Z M 55.198864 33.980114 " transform="matrix(1.375,0,0,1.375,0,0)"/>
</g>
</svg>
